<svg width="675px" height="325px" x="0px" y="0px" viewBox="0 0 675 325" xmlns="http://www.w3.org/2000/svg" version="1.1" style="transform: translate(0,0)" preserveAspectRatio="none meet" shape-rendering="geometricPrecision" text-rendering="geometricPrecision" image-rendering="optimizeQuality"><title>多零条形码™</title><!--<description>本源文件基于多零™(y56y.com)制作。</description>--><rect x="0" y="0" width="675" height="325" name="_barcode_background" style="fill:#ffffff;"></rect><g name="_barcode_group" transform="translate(30, 30)" style="fill:#000000;"><rect x="0" y="0.000" width="10" height="195"></rect><rect x="15" y="0.000" width="5" height="195"></rect><rect x="30" y="0.000" width="15" height="195"></rect><rect x="55" y="0.000" width="10" height="195"></rect><rect x="80" y="0.000" width="5" height="195"></rect><rect x="95" y="0.000" width="5" height="195"></rect><rect x="110" y="0.000" width="10" height="195"></rect><rect x="135" y="0.000" width="5" height="195"></rect><rect x="150" y="0.000" width="5" height="195"></rect><rect x="165" y="0.000" width="10" height="195"></rect><rect x="190" y="0.000" width="5" height="195"></rect><rect x="205" y="0.000" width="5" height="195"></rect><rect x="220" y="0.000" width="10" height="195"></rect><rect x="245" y="0.000" width="5" height="195"></rect><rect x="260" y="0.000" width="5" height="195"></rect><rect x="275" y="0.000" width="10" height="195"></rect><rect x="300" y="0.000" width="5" height="195"></rect><rect x="315" y="0.000" width="5" height="195"></rect><rect x="330" y="0.000" width="10" height="195"></rect><rect x="355" y="0.000" width="5" height="195"></rect><rect x="370" y="0.000" width="5" height="195"></rect><rect x="385" y="0.000" width="15" height="195"></rect><rect x="405" y="0.000" width="5" height="195"></rect><rect x="415" y="0.000" width="20" height="195"></rect><rect x="440" y="0.000" width="5" height="195"></rect><rect x="455" y="0.000" width="15" height="195"></rect><rect x="480" y="0.000" width="10" height="195"></rect><rect x="495" y="0.000" width="5" height="195"></rect><rect x="505" y="0.000" width="15" height="195"></rect><rect x="535" y="0.000" width="10" height="195"></rect><rect x="550" y="0.000" width="10" height="195"></rect><rect x="575" y="0.000" width="15" height="195"></rect><rect x="595" y="0.000" width="5" height="195"></rect><rect x="605" y="0.000" width="10" height="195"></rect></g><g><text name="_barcode_remark_0" font-size="60px" fill="#000000" font-family="SimHei" style="font-family:'SimHei';" font-weight="bold" text-anchor="middle" x="337.5" y="292">リセット</text></g></svg>